<?xml version="1.0" encoding="UTF-8" ?>
<!DOCTYPE svg PUBLIC "-//W3C//DTD SVG 1.1//EN" "http://www.w3.org/Graphics/SVG/1.1/DTD/svg11.dtd">
<svg width="546pt" height="185pt" viewBox="0 0 546 185" version="1.1" xmlns="http://www.w3.org/2000/svg">
<g id="#005030ff">
<path fill="#005030" opacity="1.00" d=" M 139.74 7.38 C 149.92 3.96 161.21 5.06 171.12 8.90 C 178.11 13.14 183.07 20.76 183.15 29.05 C 183.65 35.14 182.13 41.38 178.35 46.25 C 179.25 50.23 182.98 52.29 186.44 53.75 C 189.57 55.03 192.37 56.94 194.93 59.13 C 194.74 60.12 194.55 61.11 194.36 62.09 C 192.24 62.83 190.13 63.57 188.03 64.37 C 182.60 65.00 177.19 64.05 172.15 61.98 C 168.48 59.81 164.79 57.65 161.41 55.03 C 161.53 57.70 161.93 60.42 163.29 62.77 C 168.26 71.76 175.10 79.52 182.00 87.07 C 185.66 91.08 187.52 96.46 187.25 101.89 L 188.77 102.22 C 187.99 102.53 187.20 102.68 186.38 102.67 C 186.21 102.35 185.87 101.71 185.70 101.39 C 181.03 96.52 178.59 89.97 173.52 85.45 C 167.06 79.12 159.94 72.84 156.78 64.09 C 155.44 60.88 155.82 57.35 156.54 54.05 C 157.93 53.21 159.41 52.52 161.03 52.22 C 163.74 51.52 166.44 50.82 169.20 50.34 C 177.18 45.10 181.06 33.29 176.33 24.73 C 171.10 17.36 161.76 13.79 152.98 13.40 C 145.99 13.10 138.47 15.25 133.76 20.67 C 128.25 26.84 126.74 35.29 125.30 43.15 C 123.47 53.22 123.60 63.50 124.04 73.68 C 122.43 73.62 120.81 73.55 119.20 73.50 C 116.88 58.77 116.40 43.33 120.71 28.91 C 123.46 19.41 130.33 10.88 139.74 7.38 M 167.80 54.07 C 171.29 57.41 175.68 59.46 179.98 61.52 C 182.47 61.55 184.97 61.53 187.46 61.48 C 187.55 60.91 187.72 59.77 187.81 59.20 C 182.93 57.06 178.02 54.47 174.64 50.22 C 172.40 51.58 170.13 52.88 167.80 54.07 Z" />
<path fill="#005030" opacity="1.00" d=" M 220.99 113.86 C 231.87 87.24 242.71 60.60 253.64 34.00 C 258.28 33.84 262.59 35.92 265.46 39.55 C 270.57 45.12 273.06 52.41 275.80 59.31 C 282.23 75.21 288.22 91.29 294.94 107.08 C 297.02 112.02 302.20 114.86 307.43 115.04 C 303.23 120.79 295.43 121.02 289.00 120.60 C 282.93 120.44 277.87 116.05 274.98 111.00 C 271.34 104.81 269.09 97.95 266.37 91.34 C 256.71 91.35 247.05 91.38 237.40 91.32 C 234.15 99.29 232.57 108.29 226.65 114.86 C 224.61 117.29 221.81 118.85 218.91 120.02 C 219.50 117.93 220.18 115.87 220.99 113.86 M 251.82 54.74 C 248.04 65.06 243.71 75.17 240.04 85.53 C 247.94 85.49 255.85 85.49 263.75 85.53 C 260.05 75.16 255.64 65.06 251.82 54.74 Z" />
<path fill="#005030" opacity="1.00" d=" M 365.43 49.67 C 361.45 43.51 366.53 33.91 373.97 34.17 C 377.25 34.14 381.18 33.73 383.62 36.42 C 387.73 39.77 388.72 46.38 385.49 50.65 C 383.97 52.92 381.44 54.13 379.15 55.47 C 374.03 56.03 367.90 54.72 365.43 49.67 Z" />
<path fill="#005030" opacity="1.00" d=" M 164.86 36.53 C 166.74 36.47 168.63 36.47 170.52 36.50 C 170.69 38.47 170.72 40.46 170.60 42.44 C 169.02 42.47 167.45 42.49 165.88 42.51 C 165.27 41.64 164.66 40.78 164.05 39.93 C 164.32 38.79 164.59 37.66 164.86 36.53 Z" />
<path fill="#005030" opacity="1.00" d=" M 291.69 64.93 C 295.04 59.19 303.04 58.40 309.01 59.63 C 314.52 61.94 318.35 67.05 320.60 72.43 C 324.72 82.18 329.25 91.75 333.45 101.47 C 338.41 90.88 342.77 80.02 347.26 69.22 C 348.90 65.11 351.73 61.51 355.72 59.47 C 357.61 59.52 359.50 59.57 361.40 59.63 C 361.33 59.92 361.18 60.50 361.11 60.79 C 355.46 65.02 353.06 71.92 350.10 78.04 C 343.78 92.19 336.79 106.06 331.47 120.63 C 322.66 118.66 317.09 110.62 313.46 102.93 C 308.64 92.24 303.80 81.55 298.97 70.86 C 297.77 67.71 294.42 66.41 291.69 64.93 Z" />
<path fill="#005030" opacity="1.00" d=" M 415.84 61.75 C 426.13 57.81 437.63 57.72 448.19 60.61 C 454.08 63.03 458.52 68.44 458.91 74.91 C 459.19 85.27 458.96 95.64 458.66 105.99 C 458.46 108.65 459.44 111.13 460.77 113.37 C 463.55 113.78 466.29 114.25 469.07 114.66 C 466.93 117.97 463.60 119.98 460.00 121.35 C 455.04 121.52 449.75 122.09 445.22 119.61 C 441.55 118.00 440.51 113.72 439.55 110.23 C 439.06 110.55 438.08 111.19 437.59 111.51 C 435.34 117.02 429.84 120.62 424.07 121.42 C 421.02 121.70 417.95 121.52 414.90 121.42 C 410.03 119.69 405.01 116.82 403.41 111.54 C 402.08 105.92 402.55 99.19 406.96 94.97 C 409.26 92.25 412.71 91.08 415.89 89.76 C 417.34 89.21 418.78 88.64 420.23 88.08 C 426.73 86.25 433.23 84.41 439.55 82.00 C 439.52 76.51 440.45 69.95 436.56 65.47 C 434.47 62.83 430.90 63.60 427.98 63.62 C 426.74 64.11 425.50 64.57 424.26 65.03 C 424.51 69.25 427.31 73.75 424.81 77.76 C 422.55 82.01 417.14 81.93 412.99 81.55 C 408.00 81.25 404.41 75.78 405.71 71.03 C 406.89 66.21 411.73 63.75 415.84 61.75 M 427.94 92.88 C 422.26 97.22 420.99 106.74 426.59 111.67 C 429.36 111.68 432.22 112.03 434.93 111.27 C 437.08 110.36 437.87 108.00 439.24 106.30 C 439.37 99.89 439.61 93.48 439.56 87.07 C 435.67 88.96 431.45 90.32 427.94 92.88 Z" />
<path fill="#005030" opacity="1.00" d=" M 371.91 63.87 C 376.45 61.36 381.71 60.56 386.83 60.39 C 387.23 75.92 386.87 91.46 387.01 106.99 C 386.93 109.24 387.97 111.27 388.80 113.29 C 391.18 114.01 393.59 114.63 396.02 115.17 C 392.98 119.76 386.87 119.54 382.00 119.63 C 378.51 119.42 374.61 120.30 371.49 118.34 C 368.50 115.85 367.73 111.74 367.79 108.04 C 367.81 95.69 367.75 83.33 367.82 70.99 C 367.69 68.08 369.30 65.20 371.91 63.87 Z" />
<path fill="#005030" opacity="1.00" d=" M 502.99 62.80 C 509.51 59.54 517.24 59.71 524.12 61.66 C 530.33 64.57 533.99 71.32 534.06 78.04 C 534.19 88.03 534.05 98.02 534.09 108.01 C 533.98 110.53 534.80 112.93 535.67 115.26 C 536.96 115.44 538.25 115.62 539.54 115.80 C 539.52 116.62 539.50 117.45 539.48 118.28 C 537.36 119.34 535.22 120.34 533.10 121.39 C 529.00 121.59 524.90 121.57 520.80 121.47 C 517.67 119.62 514.76 116.87 514.75 112.95 C 514.07 101.67 515.05 90.33 514.28 79.06 C 514.21 75.46 512.12 72.51 509.39 70.36 C 503.17 69.48 495.51 71.70 493.07 78.00 C 492.42 89.64 493.36 101.34 492.63 112.98 C 492.36 116.92 489.60 119.81 486.23 121.50 C 481.85 121.55 477.48 121.56 473.10 121.57 C 473.00 101.81 473.07 82.04 473.07 62.28 C 477.77 62.33 482.77 61.77 487.17 63.81 C 490.10 65.05 491.76 67.94 493.34 70.54 C 496.28 67.65 499.16 64.51 502.99 62.80 Z" />
<path fill="#005030" opacity="1.00" d=" M 75.03 79.77 C 86.35 79.28 97.71 79.27 109.04 79.74 C 117.74 80.99 126.55 81.61 135.12 83.68 C 141.73 85.69 148.57 87.11 154.80 90.20 C 173.04 97.58 188.76 111.65 196.79 129.77 C 192.73 129.21 188.72 128.34 184.74 127.37 C 172.62 124.23 160.56 120.74 148.88 116.20 C 137.15 112.34 125.73 107.58 113.94 103.88 C 108.86 101.68 103.40 100.66 98.19 98.85 C 91.32 96.43 84.07 95.55 77.04 93.72 C 69.09 92.11 61.06 90.70 52.92 90.51 C 50.30 90.44 47.68 90.23 45.10 89.70 C 36.89 89.18 28.64 89.79 20.43 89.23 C 21.50 88.91 22.57 88.62 23.66 88.36 L 23.51 87.74 C 31.21 86.38 38.81 84.56 46.54 83.35 C 55.93 81.37 65.57 81.19 75.03 79.77 Z" />
<path fill="#005030" opacity="1.00" d=" M 8.26 97.35 C 16.06 97.40 23.88 97.12 31.66 97.80 C 24.67 99.22 17.40 97.37 10.51 99.53 L 10.40 99.56 C 9.97 99.52 9.13 99.43 8.70 99.39 C 8.59 98.88 8.37 97.86 8.26 97.35 Z" />
<path fill="#005030" opacity="1.00" d=" M 29.91 119.21 C 38.98 123.49 47.57 129.02 57.29 131.74 C 62.93 134.97 68.56 138.25 74.81 140.23 C 75.43 140.35 76.67 140.61 77.29 140.73 C 81.28 142.95 85.50 144.67 89.82 146.13 C 90.19 146.32 90.92 146.69 91.29 146.88 C 97.73 148.89 104.00 151.57 110.70 152.61 C 112.90 153.44 115.06 154.62 117.51 154.36 C 118.13 154.68 118.75 155.01 119.36 155.34 C 124.09 155.48 128.30 157.93 132.93 158.57 C 137.95 159.30 142.91 161.22 148.05 160.32 C 151.19 159.75 154.00 161.55 157.00 162.08 C 155.43 163.41 153.81 164.67 152.08 165.78 C 153.23 164.72 154.36 163.64 155.48 162.53 C 144.58 161.85 134.02 158.96 123.22 157.61 C 110.41 154.20 98.14 149.12 85.39 145.54 C 74.91 141.55 65.09 136.00 54.48 132.36 C 46.74 127.20 37.81 124.14 29.91 119.21 Z" />
<path fill="#005030" opacity="1.00" d=" M 311.10 133.73 C 316.59 134.09 323.73 132.29 327.57 137.36 C 330.07 140.25 328.47 144.07 327.23 147.13 C 331.50 150.71 331.05 158.34 325.97 160.96 C 321.28 162.91 316.07 162.21 311.11 162.34 C 310.92 152.81 310.94 143.27 311.10 133.73 M 316.06 138.20 C 316.02 140.39 316.00 142.57 315.98 144.76 C 318.21 144.72 320.44 144.65 322.67 144.59 C 323.77 142.74 323.80 140.67 323.42 138.61 C 320.97 138.42 318.51 138.29 316.06 138.20 M 316.36 148.47 C 316.06 151.56 315.96 154.66 315.94 157.76 C 318.73 157.39 322.22 158.46 324.42 156.29 C 325.29 154.50 324.77 152.44 324.79 150.54 C 322.07 149.53 319.20 149.01 316.36 148.47 Z" />
<path fill="#005030" opacity="1.00" d=" M 386.56 133.42 C 389.19 132.46 390.70 135.12 392.08 136.84 C 396.25 142.50 400.65 147.98 404.78 153.67 C 404.97 147.03 404.65 140.38 405.07 133.74 C 406.61 133.73 408.15 133.72 409.70 133.71 C 409.94 140.81 409.75 147.92 409.84 155.03 C 409.78 157.79 410.09 160.73 408.83 163.29 C 406.66 163.98 405.27 161.42 403.94 160.13 C 399.70 154.42 395.09 148.98 391.15 143.06 C 390.87 149.49 391.13 155.92 390.86 162.35 C 389.28 162.34 387.70 162.34 386.13 162.35 C 385.87 155.23 386.07 148.10 385.97 140.97 C 385.99 138.45 385.84 135.87 386.56 133.42 Z" />
<path fill="#005030" opacity="1.00" d=" M 413.19 133.74 C 418.97 133.91 425.54 132.81 430.49 136.54 C 437.66 141.35 438.07 153.19 431.49 158.65 C 429.27 160.91 426.06 161.55 423.12 162.33 C 419.85 162.30 416.58 162.32 413.32 162.36 C 412.94 152.82 413.10 143.27 413.19 133.74 M 418.07 138.21 C 418.00 144.73 418.02 151.25 418.05 157.76 C 421.31 157.49 425.14 158.30 427.79 155.89 C 432.40 151.84 432.27 143.46 427.28 139.75 C 424.66 137.73 421.14 138.47 418.07 138.21 Z" />
<path fill="#005030" opacity="1.00" d=" M 438.88 144.18 C 436.43 140.42 439.11 135.10 443.08 133.71 C 445.79 133.12 448.68 133.05 451.38 133.79 C 453.24 134.75 454.51 136.51 455.94 137.99 C 455.87 138.63 455.72 139.90 455.64 140.54 C 454.79 140.57 453.10 140.64 452.25 140.67 C 451.37 139.62 450.51 138.59 449.62 137.56 C 448.06 137.59 446.51 137.63 444.96 137.67 C 444.46 138.12 443.47 139.03 442.98 139.48 C 443.34 142.68 446.54 143.73 449.10 144.79 C 451.79 146.25 454.95 147.70 456.16 150.74 C 457.88 154.34 456.21 158.78 453.14 161.06 C 450.78 162.80 447.68 162.64 444.91 162.40 C 441.29 161.96 439.13 158.73 437.20 156.01 C 438.25 154.80 439.32 153.60 440.38 152.39 C 441.81 154.65 443.56 156.69 445.58 158.46 C 446.94 158.45 448.30 158.45 449.67 158.46 C 451.10 156.91 452.78 154.72 451.38 152.58 C 448.19 148.48 441.71 148.72 438.88 144.18 Z" />
<path fill="#005030" opacity="1.00" d=" M 333.11 133.73 C 337.43 133.76 341.86 133.42 346.07 134.65 C 350.04 136.21 352.42 140.87 351.12 145.00 C 350.58 148.13 347.52 149.59 345.09 151.08 C 348.06 154.87 351.55 158.24 354.21 162.27 C 352.29 162.30 350.37 162.33 348.46 162.37 C 345.16 158.22 341.59 154.31 338.30 150.15 C 337.97 154.21 337.99 158.29 337.85 162.36 C 336.27 162.35 334.70 162.34 333.13 162.35 C 332.91 152.81 332.94 143.27 333.11 133.73 M 338.01 138.21 C 337.98 141.33 338.03 144.45 338.20 147.57 C 340.68 147.39 343.16 147.10 345.59 146.56 C 346.70 143.93 346.38 141.20 345.36 138.60 C 342.91 138.43 340.46 138.30 338.01 138.21 Z" />
<path fill="#005030" opacity="1.00" d=" M 357.01 162.34 C 361.09 152.38 365.12 142.35 369.98 132.75 C 372.70 135.13 373.77 138.64 375.16 141.85 C 378.01 148.70 381.25 155.40 383.88 162.34 C 382.17 162.33 380.45 162.33 378.74 162.32 C 377.67 159.70 376.56 157.08 375.46 154.47 C 372.07 154.52 368.69 154.52 365.30 154.47 C 364.23 157.08 363.15 159.70 362.09 162.32 C 360.39 162.32 358.70 162.33 357.01 162.34 M 367.11 150.48 C 369.28 150.47 371.46 150.46 373.64 150.45 C 372.58 147.50 371.46 144.57 370.41 141.62 C 369.29 144.57 368.13 147.50 367.11 150.48 Z" />
<path fill="#005030" opacity="1.00" d=" M 124.14 174.71 C 133.14 173.95 141.88 171.19 149.86 166.98 C 143.44 170.90 136.19 173.31 128.84 174.78 C 126.88 175.23 124.91 175.68 122.95 176.12 C 123.01 176.01 123.12 175.78 123.18 175.66 C 123.42 175.42 123.90 174.95 124.14 174.71 Z" />
</g>
<g id="#006c68ff">
<path fill="#006c68" opacity="1.00" d=" M 31.66 97.80 C 32.37 97.69 33.79 97.49 34.50 97.39 L 34.44 98.39 C 36.97 98.42 39.50 98.51 42.02 98.70 C 49.71 100.02 57.58 100.20 65.24 101.77 C 67.15 102.16 69.08 102.45 71.02 102.71 C 72.71 103.13 74.42 103.47 76.13 103.81 C 81.09 104.79 86.09 105.64 91.03 106.75 C 92.36 107.14 93.70 107.51 95.04 107.88 C 96.37 108.26 97.72 108.58 99.06 108.93 C 102.01 109.70 104.99 110.32 107.95 111.04 C 108.95 111.39 109.96 111.74 110.96 112.10 C 112.98 112.69 114.99 113.32 117.01 113.93 C 119.64 114.67 122.28 115.35 124.89 116.16 C 130.30 118.34 135.94 119.88 141.46 121.76 L 141.53 122.25 C 145.18 123.34 148.80 124.55 152.43 125.75 L 152.55 126.23 C 154.08 126.71 155.61 127.25 157.13 127.76 C 159.88 128.81 162.64 129.83 165.42 130.80 L 165.62 131.22 C 169.57 132.76 173.52 134.28 177.48 135.78 L 177.53 136.69 C 177.88 136.66 178.59 136.59 178.94 136.56 C 182.32 138.12 185.79 139.46 189.16 141.05 C 186.75 143.15 184.02 144.83 181.25 146.40 C 176.01 148.53 170.56 150.11 164.97 151.00 C 156.38 151.88 147.58 152.07 139.02 150.82 C 137.01 150.60 135.00 150.43 132.99 150.25 C 127.72 148.99 122.35 148.19 117.08 146.93 C 115.71 146.54 114.35 146.17 113.00 145.72 C 112.49 145.61 111.45 145.39 110.93 145.28 C 107.37 143.99 103.73 142.93 100.07 141.97 C 99.03 141.53 98.01 141.07 96.99 140.60 C 96.38 140.56 95.15 140.48 94.53 140.44 L 94.51 139.70 C 91.95 138.93 89.41 138.09 86.86 137.27 C 85.75 136.90 84.64 136.54 83.52 136.20 L 83.49 135.27 C 83.14 135.31 82.44 135.39 82.09 135.43 C 78.48 133.78 74.71 132.48 71.13 130.74 C 68.30 129.52 65.46 128.34 62.57 127.30 L 62.35 126.87 C 58.58 125.24 54.82 123.59 51.15 121.73 C 48.13 120.16 45.02 118.75 41.99 117.18 C 31.40 111.49 20.53 106.21 10.51 99.53 C 17.40 97.37 24.67 99.22 31.66 97.80 Z" />
</g>
<g id="#50b948ff">
<path fill="#50b948" opacity="1.00" d=" M 7.13 106.56 L 8.26 106.33 C 8.27 106.70 8.28 107.43 8.29 107.80 L 9.68 107.22 L 9.44 108.69 C 9.81 108.64 10.57 108.53 10.95 108.48 C 13.41 110.03 15.95 111.44 18.52 112.81 L 18.57 113.59 C 18.91 113.60 19.58 113.60 19.91 113.61 C 21.27 114.39 22.65 115.12 24.04 115.83 C 25.11 116.47 26.17 117.12 27.24 117.76 C 28.13 118.24 29.02 118.73 29.91 119.21 C 37.81 124.14 46.74 127.20 54.48 132.36 C 65.09 136.00 74.91 141.55 85.39 145.54 C 98.14 149.12 110.41 154.20 123.22 157.61 C 134.02 158.96 144.58 161.85 155.48 162.53 C 154.36 163.64 153.23 164.72 152.08 165.78 C 151.52 166.08 150.41 166.68 149.86 166.98 C 141.88 171.19 133.14 173.95 124.14 174.71 C 123.90 174.95 123.42 175.42 123.18 175.66 L 122.28 175.87 C 117.51 175.68 112.73 175.79 107.98 175.34 C 103.20 174.68 98.56 173.36 93.90 172.18 C 91.90 171.53 89.89 170.92 87.89 170.30 C 86.76 169.90 85.62 169.51 84.47 169.16 L 84.43 168.28 C 84.10 168.34 83.42 168.45 83.09 168.50 C 80.55 167.10 77.87 165.99 75.26 164.72 C 74.35 164.23 73.44 163.75 72.52 163.27 L 72.27 162.92 C 70.20 161.95 68.17 160.90 66.20 159.74 C 43.60 145.66 23.68 127.38 7.13 106.56 Z" />
</g>
</svg>
